<svg width="40" height="39" viewBox="0 0 40 39" fill="none" xmlns="http://www.w3.org/2000/svg">
<path fill-rule="evenodd" clip-rule="evenodd" d="M39.7454 19.8696C39.7454 18.5099 39.6171 17.2025 39.379 15.9474H20.4014V23.3647H31.2457C30.7786 25.7616 29.359 27.7924 27.2249 29.152V33.9632H33.737C37.5472 30.625 39.7454 25.7093 39.7454 19.8696Z" fill="#4285F4"/>
<path fill-rule="evenodd" clip-rule="evenodd" d="M20.4013 38.6088C25.8418 38.6088 30.403 36.8917 33.7369 33.9632L27.2248 29.152C25.4205 30.3025 23.1124 30.9824 20.4013 30.9824C15.1531 30.9824 10.711 27.6093 9.12646 23.077H2.39453V28.0451C5.71012 34.3118 12.5245 38.6088 20.4013 38.6088Z" fill="#34A853"/>
<path fill-rule="evenodd" clip-rule="evenodd" d="M9.12613 23.077C8.72313 21.9265 8.49416 20.6976 8.49416 19.4338C8.49416 18.17 8.72313 16.941 9.12613 15.7905V10.8224H2.3942C1.0295 13.4111 0.250977 16.3396 0.250977 19.4338C0.250977 22.5279 1.0295 25.4565 2.3942 28.0451L9.12613 23.077Z" fill="#FBBC05"/>
<path fill-rule="evenodd" clip-rule="evenodd" d="M20.4013 7.88521C23.3597 7.88521 26.0158 8.85267 28.1041 10.7527L33.8835 5.253C30.3939 2.15886 25.8326 0.258789 20.4013 0.258789C12.5245 0.258789 5.71012 4.55573 2.39453 10.8225L9.12646 15.7905C10.711 11.2583 15.1531 7.88521 20.4013 7.88521Z" fill="#EA4335"/>
</svg>
