<svg width="39" height="40" viewBox="0 0 39 40" fill="none" xmlns="http://www.w3.org/2000/svg">
<path fill-rule="evenodd" clip-rule="evenodd" d="M38.8391 20.4432C38.8391 19.0604 38.715 17.7309 38.4846 16.4545H20.1191V23.9975H30.6137C30.1616 26.435 28.7878 28.5002 26.7225 29.8829V34.7757H33.0246C36.7119 31.3809 38.8391 26.3818 38.8391 20.4432Z" fill="#4285F4"/>
<path fill-rule="evenodd" clip-rule="evenodd" d="M20.1193 39.4999C25.3843 39.4999 29.7984 37.7538 33.0247 34.7756L26.7227 29.8829C24.9765 31.0529 22.7429 31.7443 20.1193 31.7443C15.0404 31.7443 10.7415 28.314 9.20813 23.705H2.69336V28.7572C5.90199 35.1302 12.4965 39.4999 20.1193 39.4999Z" fill="#34A853"/>
<path fill-rule="evenodd" clip-rule="evenodd" d="M9.208 23.705C8.818 22.535 8.59641 21.2852 8.59641 20C8.59641 18.7148 8.818 17.465 9.208 16.295V11.2427H2.69323C1.37255 13.8752 0.619141 16.8534 0.619141 20C0.619141 23.1466 1.37255 26.1248 2.69323 28.7573L9.208 23.705Z" fill="#FBBC05"/>
<path fill-rule="evenodd" clip-rule="evenodd" d="M20.1193 8.25568C22.9822 8.25568 25.5527 9.23954 27.5736 11.1718L33.1665 5.57886C29.7895 2.43227 25.3754 0.5 20.1193 0.5C12.4965 0.5 5.90199 4.86977 2.69336 11.2427L9.20813 16.295C10.7415 11.6859 15.0404 8.25568 20.1193 8.25568Z" fill="#EA4335"/>
</svg>
