<svg width="905" height="1117" viewBox="0 0 905 1117" fill="none" xmlns="http://www.w3.org/2000/svg">
<rect x="905" y="0.00105286" width="1117" height="755.117" transform="rotate(90 905 0.00105286)" fill="url(#paint0_linear_212_12)"/>
<path fill-rule="evenodd" clip-rule="evenodd" d="M0.221158 -0.00134277C64.748 113.781 107.928 321.327 107.928 558.499C107.928 795.67 64.748 1003.21 0.221575 1117L156.884 1117L156.885 -0.00133129L0.221158 -0.00134277Z" fill="url(#paint1_linear_212_12)"/>
<rect width="132.064" height="469.639" rx="66.0318" transform="matrix(0.89891 0.438133 -0.795572 0.605859 762.232 170.585)" fill="url(#paint2_linear_212_12)" fill-opacity="0.6"/>
<rect width="142.945" height="469.639" rx="71.4725" transform="matrix(0.0994258 -0.995045 0.844042 0.536278 111.463 276.927)" fill="url(#paint3_linear_212_12)" fill-opacity="0.6"/>
<defs>
<linearGradient id="paint0_linear_212_12" x1="1625.46" y1="640.299" x2="2188.41" y2="226.253" gradientUnits="userSpaceOnUse">
<stop stop-color="#6B50FF"/>
<stop offset="1" stop-color="#A145FF"/>
</linearGradient>
<linearGradient id="paint1_linear_212_12" x1="214.75" y1="1117" x2="224.56" y2="873.732" gradientUnits="userSpaceOnUse">
<stop stop-color="#7E55FF"/>
<stop offset="1" stop-color="#6B50FF"/>
</linearGradient>
<linearGradient id="paint2_linear_212_12" x1="66.0318" y1="0" x2="91.284" y2="438.981" gradientUnits="userSpaceOnUse">
<stop offset="0.236111" stop-color="#7373FF"/>
<stop offset="1" stop-color="#7373FF" stop-opacity="0"/>
</linearGradient>
<linearGradient id="paint3_linear_212_12" x1="71.4725" y1="0" x2="94.8137" y2="439.193" gradientUnits="userSpaceOnUse">
<stop offset="0.236111" stop-color="#7373FF"/>
<stop offset="1" stop-color="#7373FF" stop-opacity="0"/>
</linearGradient>
</defs>
</svg>
