<svg width="34" height="39" viewBox="0 0 34 39" fill="none" xmlns="http://www.w3.org/2000/svg">
<path d="M33.1375 30.3928C32.545 31.7554 31.8437 33.0096 31.0311 34.1627C29.9236 35.7347 29.0167 36.8228 28.3178 37.4271C27.2344 38.4189 26.0736 38.9268 24.8306 38.9557C23.9383 38.9557 22.8622 38.703 21.6095 38.1902C20.3527 37.6798 19.1977 37.4271 18.1416 37.4271C17.0341 37.4271 15.8462 37.6798 14.5756 38.1902C13.3031 38.703 12.278 38.9702 11.4942 38.9967C10.3023 39.0472 9.11417 38.5248 7.92824 37.4271C7.17131 36.7699 6.22455 35.6432 5.09037 34.0472C3.87349 32.3428 2.87304 30.3664 2.08927 28.1131C1.24988 25.6793 0.829102 23.3225 0.829102 21.0408C0.829102 18.4272 1.39643 16.173 2.53279 14.2839C3.42586 12.7666 4.61397 11.5697 6.10098 10.691C7.58798 9.8123 9.1947 9.36454 10.925 9.33589C11.8717 9.33589 13.1133 9.62742 14.6562 10.2004C16.1947 10.7752 17.1826 11.0668 17.6157 11.0668C17.9395 11.0668 19.0369 10.7259 20.8973 10.0463C22.6566 9.41605 24.1414 9.1551 25.3578 9.25789C28.654 9.5227 31.1303 10.8162 32.7771 13.1465C29.8292 14.9245 28.371 17.4149 28.4 20.6097C28.4266 23.0981 29.3335 25.1689 31.1158 26.8131C31.9235 27.5763 32.8255 28.1661 33.8291 28.5849C33.6115 29.2132 33.3817 29.8151 33.1375 30.3928V30.3928ZM25.5779 0.780222C25.5779 2.73067 24.8621 4.55179 23.4353 6.23741C21.7135 8.24127 19.6308 9.3992 17.3724 9.21648C17.3436 8.98249 17.3269 8.73622 17.3269 8.47743C17.3269 6.60501 18.1458 4.60114 19.5999 2.96271C20.3258 2.13314 21.2492 1.44337 22.3688 0.893125C23.4861 0.351089 24.5429 0.0513322 25.5368 0C25.5658 0.260744 25.5779 0.521505 25.5779 0.780197V0.780222Z" fill="white"/>
</svg>
