<svg width="35" height="40" viewBox="0 0 35 40" fill="none" xmlns="http://www.w3.org/2000/svg">
<path d="M33.9537 30.67C33.3414 32.0099 32.6168 33.2432 31.7771 34.3771C30.6326 35.9229 29.6955 36.9929 28.9734 37.587C27.8539 38.5623 26.6544 39.0618 25.37 39.0902C24.4479 39.0902 23.3358 38.8417 22.0414 38.3374C20.7427 37.8356 19.5493 37.587 18.458 37.587C17.3135 37.587 16.086 37.8356 14.7731 38.3374C13.4582 38.8417 12.3989 39.1044 11.589 39.1305C10.3573 39.1802 9.12959 38.6665 7.90413 37.587C7.12198 36.9408 6.14366 35.8329 4.97167 34.2635C3.71423 32.5875 2.68043 30.644 1.87054 28.4283C1.00317 26.035 0.568359 23.7175 0.568359 21.4739C0.568359 18.9038 1.1546 16.6872 2.32884 14.8296C3.25168 13.3376 4.47939 12.1606 6.01596 11.2965C7.55254 10.4325 9.21281 9.99221 11.0008 9.96404C11.9791 9.96404 13.262 10.2507 14.8563 10.8141C16.4461 11.3794 17.4669 11.6661 17.9145 11.6661C18.2491 11.6661 19.3831 11.3309 21.3055 10.6626C23.1234 10.0429 24.6578 9.78627 25.9147 9.88734C29.3207 10.1477 31.8796 11.4196 33.5813 13.7111C30.5352 15.4595 29.0283 17.9084 29.0583 21.0499C29.0858 23.4969 30.0229 25.5332 31.8646 27.15C32.6992 27.9004 33.6313 28.4804 34.6684 28.8923C34.4435 29.5101 34.2061 30.1019 33.9537 30.67V30.67ZM26.1421 1.55097C26.1421 3.46891 25.4024 5.25968 23.9281 6.9172C22.1489 8.88767 19.9968 10.0263 17.6631 9.84663C17.6334 9.61654 17.6161 9.37437 17.6161 9.11989C17.6161 7.27868 18.4622 5.30821 19.9648 3.69708C20.715 2.88134 21.6691 2.20307 22.8261 1.66199C23.9806 1.12899 25.0726 0.834229 26.0996 0.783752C26.1296 1.04015 26.1421 1.29657 26.1421 1.55095V1.55097Z" fill="white"/>
</svg>
