<svg width="34" height="33" viewBox="0 0 34 33" fill="none" xmlns="http://www.w3.org/2000/svg">
<path d="M31.4161 0.208801H2.81942C2.16257 0.208801 1.53263 0.461178 1.06817 0.91041C0.603705 1.35964 0.342773 1.96893 0.342773 2.60424V30.2634C0.342773 30.8987 0.603705 31.508 1.06817 31.9572C1.53263 32.4064 2.16257 32.6588 2.81942 32.6588H31.4161C32.073 32.6588 32.7029 32.4064 33.1674 31.9572C33.6318 31.508 33.8928 30.8987 33.8928 30.2634V2.60424C33.8928 1.96893 33.6318 1.35964 33.1674 0.91041C32.7029 0.461178 32.073 0.208801 31.4161 0.208801ZM10.3425 27.8521H5.29839V12.355H10.3425V27.8521ZM7.81697 10.2075C7.2448 10.2043 6.6864 10.0374 6.21225 9.72759C5.73811 9.41781 5.36946 8.97913 5.15283 8.4669C4.93621 7.95468 4.88132 7.39187 4.99508 6.8495C5.10885 6.30713 5.38618 5.8095 5.79207 5.41943C6.19796 5.02937 6.71422 4.76433 7.27569 4.65778C7.83717 4.55122 8.4187 4.60793 8.94688 4.82074C9.47507 5.03354 9.92625 5.39291 10.2435 5.85349C10.5607 6.31408 10.7297 6.85522 10.7293 7.40865C10.7347 7.77916 10.6629 8.14693 10.5182 8.49005C10.3735 8.83316 10.1589 9.14458 9.88715 9.40576C9.61538 9.66694 9.29203 9.87252 8.93636 10.0103C8.5807 10.148 8.2 10.2151 7.81697 10.2075ZM28.9348 27.8657H23.893V19.3994C23.893 16.9025 22.7956 16.1318 21.3791 16.1318C19.8833 16.1318 18.4155 17.2225 18.4155 19.4625V27.8657H13.3714V12.3663H18.2221V14.5138H18.2874C18.7743 13.5606 20.4798 11.9314 23.0822 11.9314C25.8967 11.9314 28.9372 13.5471 28.9372 18.2794L28.9348 27.8657Z" fill="white"/>
</svg>
