<svg width="34" height="34" viewBox="0 0 34 34" fill="none" xmlns="http://www.w3.org/2000/svg">
<path d="M31.3931 0.5H3.26514C2.61907 0.5 1.99945 0.756654 1.5426 1.2135C1.08576 1.67035 0.829102 2.28996 0.829102 2.93604V31.064C0.829102 31.71 1.08576 32.3297 1.5426 32.7865C1.99945 33.2433 2.61907 33.5 3.26514 33.5H31.3931C32.0391 33.5 32.6588 33.2433 33.1156 32.7865C33.5725 32.3297 33.8291 31.71 33.8291 31.064V2.93604C33.8291 2.28996 33.5725 1.67035 33.1156 1.2135C32.6588 0.756654 32.0391 0.5 31.3931 0.5ZM10.6649 28.6119H5.70348V12.8521H10.6649V28.6119ZM8.18077 10.6681C7.61798 10.665 7.06874 10.4951 6.60236 10.1801C6.13599 9.8651 5.77338 9.41898 5.56031 8.89807C5.34723 8.37716 5.29324 7.80481 5.40514 7.25325C5.51705 6.70169 5.78983 6.19563 6.18906 5.79895C6.5883 5.40227 7.0961 5.13274 7.64837 5.02438C8.20064 4.91602 8.77263 4.97369 9.29216 5.19011C9.81169 5.40652 10.2555 5.77198 10.5675 6.24037C10.8795 6.70875 11.0458 7.25908 11.0454 7.82188C11.0507 8.19867 10.9801 8.57268 10.8377 8.92161C10.6954 9.27053 10.4843 9.58724 10.217 9.85284C9.9497 10.1184 9.63164 10.3275 9.28181 10.4676C8.93198 10.6077 8.55752 10.6759 8.18077 10.6681ZM28.9524 28.6256H23.9933V20.0158C23.9933 17.4767 22.9139 16.6929 21.5206 16.6929C20.0493 16.6929 18.6056 17.8021 18.6056 20.08V28.6256H13.6441V12.8635H18.4154V15.0475H18.4795C18.9585 14.0781 20.636 12.4213 23.1958 12.4213C25.9641 12.4213 28.9547 14.0644 28.9547 18.8769L28.9524 28.6256Z" fill="white"/>
</svg>
